<?xml version="1.0" standalone="no"?>
<!DOCTYPE svg PUBLIC "-//W3C//DTD SVG 20010904//EN"
 "http://www.w3.org/TR/2001/REC-SVG-20010904/DTD/svg10.dtd">
<svg version="1.0" xmlns="http://www.w3.org/2000/svg"
 width="501.000000pt" height="102.000000pt" viewBox="0 0 501.000000 102.000000"
 preserveAspectRatio="xMidYMid meet">

<g transform="translate(0.000000,91.000000) scale(0.100000,-0.100000)"
fill="#000000" stroke="none">
<path d="M77 665 c-37 -74 -67 -140 -67 -145 0 -6 77 -125 170 -265 l170 -255
129 0 129 0 171 260 172 259 -71 141 c-38 77 -74 140 -79 140 -25 0 -17 -29
44 -150 l65 -130 -160 -240 -160 -240 -113 0 -114 0 -156 235 c-87 129 -157
240 -157 245 0 6 27 64 60 130 l60 120 275 0 275 0 62 -124 62 -125 -140 -210
-139 -211 -86 0 -86 0 -141 211 -140 211 44 92 45 91 245 3 244 2 45 -91 44
-91 -126 -189 -126 -189 -51 0 -51 0 -120 181 c-66 100 -121 187 -123 194 -2
7 11 41 28 74 l30 61 205 0 205 0 32 -65 32 -64 -107 -161 c-86 -128 -112
-160 -130 -160 -17 0 -44 34 -129 162 l-106 161 16 33 16 34 171 0 171 0 16
-32 15 -33 -85 -128 -86 -128 -83 128 -84 128 132 3 c72 1 134 1 136 -2 6 -5
-89 -145 -98 -146 -6 0 -59 75 -59 85 0 3 25 5 55 5 48 0 55 2 55 20 0 19 -7
20 -90 20 -49 0 -90 -2 -90 -5 0 -11 121 -185 128 -185 4 1 38 46 76 101 61
90 67 103 57 125 -11 24 -12 24 -166 24 -154 0 -156 0 -166 -24 -10 -21 0 -40
93 -180 l105 -156 105 158 105 158 -23 47 -24 47 -195 0 -195 0 -25 -50 -25
-50 120 -181 121 -180 37 3 c36 3 40 8 156 181 l120 177 -39 80 -39 80 -231 0
-230 -1 -38 -83 -39 -83 134 -201 133 -201 71 -1 71 0 135 203 135 203 -56
112 -56 112 -260 0 -260 0 -58 -115 -57 -115 153 -230 152 -229 101 -1 101 0
153 231 154 230 -69 140 -69 139 -301 0 -300 0 -68 -135z"/>
<path d="M1052 523 c3 -148 5 -172 24 -203 38 -66 118 -99 204 -85 56 9 101
43 128 95 20 40 22 58 22 202 l0 158 -45 0 -45 0 0 -145 c0 -155 -10 -204 -48
-224 -26 -14 -64 -14 -95 0 -46 21 -52 44 -55 212 l-4 157 -45 0 -45 0 4 -167z"/>
<path d="M1520 460 l0 -230 40 0 39 0 3 146 3 147 114 -147 c107 -136 117
-146 148 -146 l33 0 0 230 0 230 -40 0 -39 0 -3 -146 -3 -147 -114 147 c-107
136 -117 146 -148 146 l-33 0 0 -230z"/>
<path d="M2000 460 l0 -230 45 0 45 0 0 230 0 230 -45 0 -45 0 0 -230z"/>
<path d="M2180 460 l0 -230 45 0 45 0 0 90 0 90 80 0 80 0 0 35 0 35 -80 0
-80 0 0 70 0 70 95 0 95 0 0 35 0 35 -140 0 -140 0 0 -230z"/>
<path d="M2530 460 l0 -230 45 0 45 0 0 230 0 230 -45 0 -45 0 0 -230z"/>
<path d="M2839 677 c-98 -37 -144 -108 -144 -222 1 -82 25 -139 77 -178 71
-54 188 -59 261 -11 42 28 44 34 19 57 -23 21 -41 21 -66 2 -24 -18 -92 -19
-126 -2 -13 7 -35 28 -48 47 -21 30 -23 44 -20 104 4 64 6 70 41 102 43 40 93
45 152 17 34 -16 36 -16 57 4 12 12 18 28 15 37 -16 41 -151 68 -218 43z"/>
<path d="M3243 673 c-3 -10 -41 -110 -85 -223 -43 -113 -78 -209 -78 -213 0
-4 19 -7 42 -5 44 3 55 14 78 81 9 27 10 27 98 27 l89 0 19 -52 19 -53 48 -3
47 -3 -25 68 c-14 37 -54 141 -88 231 l-62 162 -48 0 c-36 0 -49 -4 -54 -17z
m90 -173 c15 -41 27 -78 27 -82 0 -5 -29 -8 -65 -8 l-64 0 31 90 c17 50 35 87
38 83 4 -5 19 -42 33 -83z"/>
<path d="M3480 655 l0 -35 65 0 65 0 0 -195 0 -195 45 0 45 0 0 195 0 195 65
0 65 0 0 35 0 35 -175 0 -175 0 0 -35z"/>
<path d="M3890 460 l0 -230 45 0 45 0 0 230 0 230 -45 0 -45 0 0 -230z"/>
<path d="M4201 676 c-116 -38 -179 -175 -136 -297 48 -136 222 -189 349 -108
130 82 127 300 -4 381 -56 35 -145 45 -209 24z m149 -82 c42 -26 64 -71 64
-134 0 -100 -58 -158 -149 -148 -36 4 -55 14 -79 37 -29 30 -31 35 -31 110 0
71 3 82 25 106 14 15 34 31 45 35 33 14 95 11 125 -6z"/>
<path d="M4580 460 l0 -230 40 0 39 0 3 146 3 147 114 -147 c107 -136 117
-146 148 -146 l33 0 0 230 0 230 -40 0 -39 0 -3 -146 -3 -147 -114 147 c-107
136 -117 146 -148 146 l-33 0 0 -230z"/>
</g>
</svg>
